<svg width="1024" height="1035" viewBox="0 0 1024 1035" fill="none" xmlns="http://www.w3.org/2000/svg">
<circle cx="512" cy="512" r="512" fill="#F8B323"/>
<path d="M861.891 555.422C861.891 555.422 654.703 602.344 649.676 667.699C645.045 717.112 621.125 762.708 583.102 794.602C562.117 811.08 537.615 822.497 511.5 827.965C485.404 822.44 460.915 811.028 439.898 794.602C401.94 762.655 378.035 717.088 373.324 667.699C368.297 602.344 161.109 555.422 161.109 555.422C213.059 466.758 77.3203 354.633 77.3203 354.633L277.5 235.652L337.676 441.621L408.059 464.93C410.501 485.067 418.784 504.048 431.887 519.533C444.989 535.018 462.338 546.329 481.793 552.07C484.992 572.637 497.027 588.023 511.043 588.023C525.059 588.023 537.246 572.789 540.293 552.07C559.767 546.336 577.138 535.031 590.266 519.548C603.395 504.064 611.707 485.079 614.18 464.93L684.41 441.621L745.348 235.652L945.375 354.633C945.375 354.633 809.484 466.758 861.891 555.422Z" fill="#3C2539"/>
<path d="M605.039 407.953C611.911 421.771 615.459 437.005 615.398 452.438C615.63 456.598 615.63 460.769 615.398 464.93C612.926 485.079 604.613 504.064 591.485 519.548C578.356 535.032 560.985 546.337 541.512 552.07C542.124 548.498 542.43 544.879 542.426 541.254C542.426 515.203 529.019 494.332 511.957 494.332C494.894 494.332 481.488 515.203 481.488 541.254C481.484 544.879 481.79 548.498 482.402 552.07C462.947 546.329 445.599 535.018 432.496 519.533C419.393 504.048 411.11 485.067 408.668 464.93C408.436 460.769 408.436 456.598 408.668 452.438C408.632 437.025 412.123 421.808 418.875 407.953C394.195 375.504 356.262 323.098 356.262 323.098L463.816 360.727C478.798 352.828 495.478 348.7 512.414 348.7C529.35 348.7 546.03 352.828 561.012 360.727L668.566 323.098C668.566 323.098 629.871 375.504 605.039 407.953Z" fill="#3C2539"/>
<path d="M541.969 541.254C541.973 544.879 541.667 548.497 541.055 552.07C538.008 572.637 525.82 588.023 511.805 588.023C497.789 588.023 485.754 572.789 482.555 552.07C481.942 548.497 481.636 544.879 481.641 541.254C481.641 515.203 495.199 494.332 512.109 494.332C529.02 494.332 541.969 515.203 541.969 541.254ZM420.094 750.117C417.352 758.648 404.859 827.965 420.094 859.348V750.117ZM602.906 750.117C605.648 758.648 618.141 827.965 602.906 859.348V750.117Z" fill="white"/>
<path d="M861.891 555.422C861.891 555.422 654.703 602.344 649.676 667.699C645.045 717.112 621.125 762.708 583.102 794.602C562.117 811.08 537.615 822.497 511.5 827.965C485.404 822.44 460.915 811.029 439.898 794.602C401.94 762.655 378.035 717.088 373.324 667.699C368.297 602.344 161.109 555.422 161.109 555.422C213.059 466.758 77.3203 354.633 77.3203 354.633L277.5 235.652L337.676 441.621L408.059 464.93C410.501 485.067 418.784 504.048 431.887 519.533C444.989 535.018 462.338 546.329 481.793 552.07C484.992 572.637 497.027 588.023 511.043 588.023C525.059 588.023 537.246 572.789 540.293 552.07C559.767 546.336 577.138 535.031 590.266 519.548C603.395 504.064 611.707 485.079 614.18 464.93L684.41 441.621L745.348 235.652L945.375 354.633C945.375 354.633 809.484 466.758 861.891 555.422Z" stroke="black" stroke-width="31.2305" stroke-linecap="round" stroke-linejoin="round"/>
<path d="M161.109 555.574C191.534 531.105 217.331 501.386 237.281 467.824C277.192 397.434 291.51 315.4 277.805 235.652L161.109 555.574ZM373.324 667.699C372.41 661.91 396.176 544.301 338.285 441.621L373.324 667.699ZM446.297 582.234C436.242 597.469 372.105 691.617 439.898 794.602L446.297 582.234ZM861.891 555.574C831.466 531.105 805.669 501.386 785.719 467.824C745.808 397.434 731.49 315.4 745.195 235.652L861.891 555.574ZM649.676 667.699C650.742 661.91 626.977 544.301 684.867 441.621L649.676 667.699ZM576.855 582.234C586.91 597.469 650.895 691.617 583.102 794.602L576.855 582.234ZM605.039 407.953C611.911 421.771 615.459 437.005 615.398 452.437C615.63 456.598 615.63 460.769 615.398 464.93C612.926 485.079 604.613 504.064 591.485 519.548C578.356 535.031 560.985 546.336 541.512 552.07C542.124 548.497 542.43 544.879 542.426 541.254C542.426 515.203 529.02 494.332 511.957 494.332C494.895 494.332 481.488 515.203 481.488 541.254C481.484 544.879 481.79 548.497 482.402 552.07C462.947 546.329 445.599 535.018 432.496 519.533C419.393 504.048 411.11 485.067 408.668 464.93C408.436 460.769 408.436 456.598 408.668 452.437C408.632 437.025 412.123 421.808 418.875 407.953C394.195 375.504 356.262 323.098 356.262 323.098L463.816 360.727C478.798 352.828 495.478 348.7 512.414 348.7C529.35 348.7 546.03 352.828 561.012 360.727L668.566 323.098C668.566 323.098 629.871 375.504 605.039 407.953V407.953Z" stroke="black" stroke-width="31.2305" stroke-linecap="round" stroke-linejoin="round"/>
<path d="M602.906 750.117C605.648 758.648 618.141 827.965 602.906 859.348M541.969 541.254C541.973 544.879 541.667 548.497 541.055 552.07C538.008 572.637 525.82 588.023 511.805 588.023C497.789 588.023 485.754 572.789 482.555 552.07C481.942 548.497 481.636 544.879 481.641 541.254C481.641 515.203 495.199 494.332 512.109 494.332C529.02 494.332 541.969 515.203 541.969 541.254ZM420.094 750.117C417.352 758.648 404.859 827.965 420.094 859.348V750.117Z" stroke="black" stroke-width="31.2305" stroke-linecap="round" stroke-linejoin="round"/>
<path d="M469.148 813.035C478.137 805.723 487.734 798.867 496.57 791.707C557.508 742.348 593.004 667.242 608.848 590.461C616.971 548.387 621.153 505.647 621.34 462.797L614.637 464.93C614.869 460.769 614.869 456.598 614.637 452.437C614.697 437.005 611.15 421.771 604.277 407.953L619.512 387.082V356.613L617.379 341.379L559.488 361.641C544.507 353.742 527.826 349.614 510.891 349.614C493.955 349.614 477.274 353.742 462.293 361.641L354.738 324.012C354.738 324.012 392.672 376.418 417.352 408.867C410.6 422.722 407.108 437.939 407.145 453.352C406.913 457.512 406.913 461.683 407.145 465.844L336.914 442.535L277.957 235.652L77.7773 354.633C77.7773 354.633 186.246 444.516 172.078 526.781L161.109 555.422C162.328 555.422 367.84 602.496 372.867 667.699C376.813 705.672 391.742 741.672 415.828 771.293C412.02 796.582 408.82 837.258 419.941 859.348V776.016C425.958 782.652 432.477 788.815 439.441 794.449C448.68 801.647 458.635 807.875 469.148 813.035Z" fill="black"/>
<g style="mix-blend-mode:overlay">
<path d="M462.902 360.727L355.348 323.098C355.348 323.098 393.281 375.504 417.961 407.953C411.209 421.808 407.718 437.025 407.754 452.437C407.522 456.598 407.522 460.769 407.754 464.93L337.523 441.621L277.957 235.652L77.7773 354.633C77.7773 354.633 186.246 444.516 172.078 526.781L161.109 555.422C162.328 555.422 367.84 602.496 372.867 667.699C376.813 705.672 391.742 741.672 415.828 771.293C412.02 796.582 408.82 837.258 419.941 859.348V776.016C438.988 797.088 463.191 812.839 490.172 821.719C466.138 783.054 452.069 739.031 449.224 693.594C446.379 648.157 454.848 602.724 473.871 561.363C486.211 535.312 503.273 508.652 499.465 480.012C496.582 466.45 492.028 453.299 485.906 440.859C475.08 414.393 469.891 385.96 470.672 357.375C468.387 358.137 465.797 359.355 462.902 360.727Z" fill="white"/>
</g>
</svg>
